<?xml version="1.0" standalone="no"?>
<svg xmlns="http://www.w3.org/2000/svg" width="80" height="706.1279296875"><g transform="translate(60,20)"><g class="x axis" transform="translate(0,600)" fill="none" font-size="10" font-family="sans-serif" text-anchor="middle"><path class="domain" stroke="#000" d="M0.5,6V0.5H20.5V6"/><g class="tick" opacity="1" transform="translate(5.238095238095238,0)"><line stroke="#000" y2="6"/><text fill="#000" y="9" dy="-0.5em" dx="-.8em" transform="rotate(-90)" style="text-anchor: end;">bone</text></g><g class="tick" opacity="1" transform="translate(14.761904761904763,0)"><line stroke="#000" y2="6"/><text fill="#000" y="9" dy="-0.5em" dx="-.8em" transform="rotate(-90)" style="text-anchor: end;">calculus</text></g></g><g class="y axis" fill="none" font-size="10" font-family="sans-serif" text-anchor="end"><path class="domain" stroke="#000" d="M-6,600.5H0.5V0.5H-6"/><g class="tick" opacity="1" transform="translate(0,600.5)"><line stroke="#000" x2="-6"/><text fill="#000" x="-9" dy="0.32em">0%</text></g><g class="tick" opacity="1" transform="translate(0,540.5)"><line stroke="#000" x2="-6"/><text fill="#000" x="-9" dy="0.32em">10%</text></g><g class="tick" opacity="1" transform="translate(0,480.5)"><line stroke="#000" x2="-6"/><text fill="#000" x="-9" dy="0.32em">20%</text></g><g class="tick" opacity="1" transform="translate(0,420.5)"><line stroke="#000" x2="-6"/><text fill="#000" x="-9" dy="0.32em">30%</text></g><g class="tick" opacity="1" transform="translate(0,360.5)"><line stroke="#000" x2="-6"/><text fill="#000" x="-9" dy="0.32em">40%</text></g><g class="tick" opacity="1" transform="translate(0,300.5)"><line stroke="#000" x2="-6"/><text fill="#000" x="-9" dy="0.32em">50%</text></g><g class="tick" opacity="1" transform="translate(0,240.5)"><line stroke="#000" x2="-6"/><text fill="#000" x="-9" dy="0.32em">60%</text></g><g class="tick" opacity="1" transform="translate(0,180.5)"><line stroke="#000" x2="-6"/><text fill="#000" x="-9" dy="0.32em">70%</text></g><g class="tick" opacity="1" transform="translate(0,120.5)"><line stroke="#000" x2="-6"/><text fill="#000" x="-9" dy="0.32em">80%</text></g><g class="tick" opacity="1" transform="translate(0,60.5)"><line stroke="#000" x2="-6"/><text fill="#000" x="-9" dy="0.32em">90%</text></g><g class="tick" opacity="1" transform="translate(0,0.5)"><line stroke="#000" x2="-6"/><text fill="#000" x="-9" dy="0.32em">100%</text></g></g><text id="y-label" text-anchor="middle" transform="translate(-30,300)rotate(-90)" style="font-style: normal; font-variant-caps: normal; font-weight: normal; font-stretch: normal; font-size: 12px; line-height: normal; font-family: sans-serif;">Relative Frequency</text><text id="x-label" text-anchor="middle" transform="translate(10,666.1279296875)" style="font-style: normal; font-variant-caps: normal; font-weight: normal; font-stretch: normal; font-size: 12px; line-height: normal; font-family: sans-serif;">Sample</text><g class="layer" style="fill: rgb(127, 201, 127);"><rect x="0.9523809523809526" y="596.206062860331" height="0.781104705225971" width="8.571428571428571"/><rect x="10.476190476190476" y="598.8789703134731" height="0" width="8.571428571428571"/></g><g class="layer" style="fill: rgb(253, 192, 134);"><rect x="0.9523809523809526" y="213.5763436860703" height="2.90124604798217" width="8.571428571428571"/><rect x="10.476190476190476" y="377.0396512352087" height="29.14677184969895" width="8.571428571428571"/></g><g class="layer" style="fill: rgb(255, 255, 153);"><rect x="0.9523809523809526" y="544.9879114748001" height="3.570764366747312" width="8.571428571428571"/><rect x="10.476190476190476" y="570.3549927340669" height="0" width="8.571428571428571"/></g><g class="layer" style="fill: rgb(102, 102, 102);"><rect x="0.9523809523809526" y="578.4638274130556" height="1.6737957969128274" width="8.571428571428571"/><rect x="10.476190476190476" y="588.6651442806726" height="0" width="8.571428571428571"/></g><g class="layer" style="fill: rgb(56, 108, 176);"><rect x="0.9523809523809526" y="573.1076808629347" height="2.1201413427562557" width="8.571428571428571"/><rect x="10.476190476190476" y="584.181025534565" height="0" width="8.571428571428571"/></g><g class="layer" style="fill: rgb(102, 102, 102);"><rect x="0.9523809523809526" y="552.6873721405989" height="3.0128324344429984" width="8.571428571428571"/><rect x="10.476190476190476" y="576.0847000207598" height="0" width="8.571428571428571"/></g><g class="layer" style="fill: rgb(102, 102, 102);"><rect x="0.9523809523809526" y="593.7511623581923" height="0" width="8.571428571428571"/><rect x="10.476190476190476" y="595.0176458376583" height="1.1210296865268674" width="8.571428571428571"/></g><g class="layer" style="fill: rgb(56, 108, 176);"><rect x="0.9523809523809526" y="181.3278779988841" height="32.24846568718618" width="8.571428571428571"/><rect x="10.476190476190476" y="342.53684866099235" height="0" width="8.571428571428571"/></g><g class="layer" style="fill: rgb(255, 255, 153);"><rect x="0.9523809523809526" y="561.5026966710061" height="2.6780732750604557" width="8.571428571428571"/><rect x="10.476190476190476" y="579.1986713722233" height="0" width="8.571428571428571"/></g><g class="layer" style="fill: rgb(253, 192, 134);"><rect x="0.9523809523809526" y="564.1807699460666" height="2.4549005021387984" width="8.571428571428571"/><rect x="10.476190476190476" y="579.1986713722233" height="0" width="8.571428571428571"/></g><g class="layer" style="fill: rgb(127, 201, 127);"><rect x="0.9523809523809526" y="549.6745397061559" height="3.0128324344429984" width="8.571428571428571"/><rect x="10.476190476190476" y="576.0847000207598" height="0" width="8.571428571428571"/></g><g class="layer" style="fill: rgb(190, 174, 212);"><rect x="0.9523809523809526" y="216.47758973405246" height="26.89231913706527" width="8.571428571428571"/><rect x="10.476190476190476" y="406.18642308490763" height="0" width="8.571428571428571"/></g><g class="layer" style="fill: rgb(255, 255, 153);"><rect x="0.9523809523809526" y="527.1340896410638" height="0" width="8.571428571428571"/><rect x="10.476190476190476" y="550.6746937928172" height="5.605148432634337" width="8.571428571428571"/></g><g class="layer" style="fill: rgb(102, 102, 102);"><rect x="0.9523809523809526" y="536.8421052631579" height="4.463455458434055" width="8.571428571428571"/><rect x="10.476190476190476" y="561.7604318040273" height="0" width="8.571428571428571"/></g><g class="layer" style="fill: rgb(191, 91, 23);"><rect x="0.9523809523809526" y="452.2596243258323" height="0" width="8.571428571428571"/><rect x="10.476190476190476" y="496.74070998546813" height="10.089267178741977" width="8.571428571428571"/></g><g class="layer" style="fill: rgb(190, 174, 212);"><rect x="0.9523809523809526" y="527.1340896410638" height="4.909801004277483" width="8.571428571428571"/><rect x="10.476190476190476" y="561.7604318040273" height="0" width="8.571428571428571"/></g><g class="layer" style="fill: rgb(102, 102, 102);"><rect x="0.9523809523809526" y="482.4995350567231" height="6.583596801190254" width="8.571428571428571"/><rect x="10.476190476190476" y="525.0155698567573" height="0" width="8.571428571428571"/></g><g class="layer" style="fill: rgb(253, 192, 134);"><rect x="0.9523809523809526" y="548.5586758415474" height="1.1158638646085137" width="8.571428571428571"/><rect x="10.476190476190476" y="570.3549927340669" height="2.366618227112326" width="8.571428571428571"/></g><g class="layer" style="fill: rgb(253, 192, 134);"><rect x="0.9523809523809526" y="501.6923935279896" height="0" width="8.571428571428571"/><rect x="10.476190476190476" y="538.9661615113141" height="5.978824994809997" width="8.571428571428571"/></g><g class="layer" style="fill: rgb(255, 255, 153);"><rect x="0.9523809523809526" y="581.6998326204204" height="0" width="8.571428571428571"/><rect x="10.476190476190476" y="592.1527921943118" height="1.7438239568195968" width="8.571428571428571"/></g><g class="layer" style="fill: rgb(56, 108, 176);"><rect x="0.9523809523809526" y="561.5026966710061" height="0" width="8.571428571428571"/><rect x="10.476190476190476" y="576.0847000207598" height="3.113971351463533" width="8.571428571428571"/></g><g class="layer" style="fill: rgb(190, 174, 212);"><rect x="0.9523809523809526" y="596.206062860331" height="0" width="8.571428571428571"/><rect x="10.476190476190476" y="598.0070583350633" height="0.8719119784097984" width="8.571428571428571"/></g><g class="layer" style="fill: rgb(255, 255, 153);"><rect x="0.9523809523809526" y="590.6267435372885" height="1.1158638646085137" width="8.571428571428571"/><rect x="10.476190476190476" y="593.8966161511314" height="0" width="8.571428571428571"/></g><g class="layer" style="fill: rgb(240, 2, 127);"><rect x="0.9523809523809526" y="416.7751534312814" height="13.390366375302165" width="8.571428571428571"/><rect x="10.476190476190476" y="445.42246211334856" height="0" width="8.571428571428571"/></g><g class="layer" style="fill: rgb(127, 201, 127);"><rect x="0.9523809523809526" y="384.5266877440952" height="16.96113074204942" width="8.571428571428571"/><rect x="10.476190476190476" y="427.2368694208013" height="0" width="8.571428571428571"/></g><g class="layer" style="fill: rgb(56, 108, 176);"><rect x="0.9523809523809526" y="541.305560721592" height="3.682350753208084" width="8.571428571428571"/><rect x="10.476190476190476" y="570.3549927340669" height="0" width="8.571428571428571"/></g><g class="layer" style="fill: rgb(102, 102, 102);"><rect x="0.9523809523809526" y="585.8285289194719" height="1.339036637530171" width="8.571428571428571"/><rect x="10.476190476190476" y="593.8966161511314" height="0" width="8.571428571428571"/></g><g class="layer" style="fill: rgb(102, 102, 102);"><rect x="0.9523809523809526" y="401.48781848614465" height="0" width="8.571428571428571"/><rect x="10.476190476190476" y="427.2368694208013" height="18.18559269254723" width="8.571428571428571"/></g><g class="layer" style="fill: rgb(191, 91, 23);"><rect x="0.9523809523809526" y="541.305560721592" height="0" width="8.571428571428571"/><rect x="10.476190476190476" y="561.7604318040273" height="4.359559892048992" width="8.571428571428571"/></g><g class="layer" style="fill: rgb(240, 2, 127);"><rect x="0.9523809523809526" y="452.2596243258323" height="0" width="8.571428571428571"/><rect x="10.476190476190476" y="506.8299771642101" height="9.964708324683386" width="8.571428571428571"/></g><g class="layer" style="fill: rgb(102, 102, 102);"><rect x="0.9523809523809526" y="441.882090384973" height="10.37753394085928" width="8.571428571428571"/><rect x="10.476190476190476" y="496.74070998546813" height="0" width="8.571428571428571"/></g><g class="layer" style="fill: rgb(127, 201, 127);"><rect x="0.9523809523809526" y="592.7468848800446" height="1.004277478147742" width="8.571428571428571"/><rect x="10.476190476190476" y="595.0176458376583" height="0" width="8.571428571428571"/></g><g class="layer" style="fill: rgb(56, 108, 176);"><rect x="0.9523809523809526" y="522.1127022503255" height="5.021387390738369" width="8.571428571428571"/><rect x="10.476190476190476" y="550.6746937928172" height="0" width="8.571428571428571"/></g><g class="layer" style="fill: rgb(240, 2, 127);"><rect x="0.9523809523809526" y="593.7511623581923" height="0.8926910916867428" width="8.571428571428571"/><rect x="10.476190476190476" y="597.1351463566535" height="0" width="8.571428571428571"/></g><g class="layer" style="fill: rgb(127, 201, 127);"><rect x="0.9523809523809526" y="599.6652408406175" height="0.33475915938254275" width="8.571428571428571"/><rect x="10.476190476190476" y="600" height="0" width="8.571428571428571"/></g><g class="layer" style="fill: rgb(253, 192, 134);"><rect x="0.9523809523809526" y="598.8841361353915" height="0.4463455458434282" width="8.571428571428571"/><rect x="10.476190476190476" y="600" height="0" width="8.571428571428571"/></g><g class="layer" style="fill: rgb(127, 201, 127);"><rect x="0.9523809523809526" y="577.0132043890645" height="1.4506230239910565" width="8.571428571428571"/><rect x="10.476190476190476" y="588.291467718497" height="0.37367656217566037" width="8.571428571428571"/></g><g class="layer" style="fill: rgb(102, 102, 102);"><rect x="0.9523809523809526" y="506.93695369164965" height="5.132973777199197" width="8.571428571428571"/><rect x="10.476190476190476" y="550.6746937928172" height="0" width="8.571428571428571"/></g><g class="layer" style="fill: rgb(253, 192, 134);"><rect x="0.9523809523809526" y="350.26966710061373" height="17.295889901432076" width="8.571428571428571"/><rect x="10.476190476190476" y="427.2368694208013" height="0" width="8.571428571428571"/></g><g class="layer" style="fill: rgb(190, 174, 212);"><rect x="0.9523809523809526" y="575.2278222056909" height="1.7853821833735992" width="8.571428571428571"/><rect x="10.476190476190476" y="588.291467718497" height="0" width="8.571428571428571"/></g><g class="layer" style="fill: rgb(191, 91, 23);"><rect x="0.9523809523809526" y="597.6566858843221" height="0.6695183187650855" width="8.571428571428571"/><rect x="10.476190476190476" y="598.8789703134731" height="0" width="8.571428571428571"/></g><g class="layer" style="fill: rgb(56, 108, 176);"><rect x="0.9523809523809526" y="430.1655198065836" height="11.716570578389451" width="8.571428571428571"/><rect x="10.476190476190476" y="445.42246211334856" height="0" width="8.571428571428571"/></g><g class="layer" style="fill: rgb(255, 255, 153);"><rect x="0.9523809523809526" y="501.6923935279896" height="0" width="8.571428571428571"/><rect x="10.476190476190476" y="532.2399833921528" height="6.726178119161318" width="8.571428571428571"/></g><g class="layer" style="fill: rgb(127, 201, 127);"><rect x="0.9523809523809526" y="506.93695369164965" height="0" width="8.571428571428571"/><rect x="10.476190476190476" y="544.9449865061241" height="5.729707286693042" width="8.571428571428571"/></g><g class="layer" style="fill: rgb(191, 91, 23);"><rect x="0.9523809523809526" y="181.3278779988841" height="0" width="8.571428571428571"/><rect x="10.476190476190476" y="268.6734482042765" height="37.11853850944573" width="8.571428571428571"/></g><g class="layer" style="fill: rgb(253, 192, 134);"><rect x="0.9523809523809526" y="441.882090384973" height="0" width="8.571428571428571"/><rect x="10.476190476190476" y="458.376582935437" height="12.954120822088441" width="8.571428571428571"/></g><g class="layer" style="fill: rgb(190, 174, 212);"><rect x="0.9523809523809526" y="441.882090384973" height="0" width="8.571428571428571"/><rect x="10.476190476190476" y="471.33070375752544" height="12.829561968029907" width="8.571428571428571"/></g><g class="layer" style="fill: rgb(56, 108, 176);"><rect x="0.9523809523809526" y="581.6998326204204" height="0" width="8.571428571428571"/><rect x="10.476190476190476" y="590.4089682374922" height="1.7438239568195968" width="8.571428571428571"/></g><g class="layer" style="fill: rgb(190, 174, 212);"><rect x="0.9523809523809526" y="599.3304816812349" height="0.33475915938254275" width="8.571428571428571"/><rect x="10.476190476190476" y="600" height="0" width="8.571428571428571"/></g><g class="layer" style="fill: rgb(253, 192, 134);"><rect x="0.9523809523809526" y="527.1340896410638" height="0" width="8.571428571428571"/><rect x="10.476190476190476" y="556.2798422254515" height="5.480589578575859" width="8.571428571428571"/></g><g class="layer" style="fill: rgb(253, 192, 134);"><rect x="0.9523809523809526" y="575.2278222056909" height="0" width="8.571428571428571"/><rect x="10.476190476190476" y="586.2985260535603" height="1.9929416649366658" width="8.571428571428571"/></g><g class="layer" style="fill: rgb(102, 102, 102);"><rect x="0.9523809523809526" y="568.8673981774224" height="0" width="8.571428571428571"/><rect x="10.476190476190476" y="581.6898484533942" height="2.491177081170804" width="8.571428571428571"/></g><g class="layer" style="fill: rgb(240, 2, 127);"><rect x="0.9523809523809526" y="581.6998326204204" height="0" width="8.571428571428571"/><rect x="10.476190476190476" y="588.6651442806726" height="1.7438239568195968" width="8.571428571428571"/></g><g class="layer" style="fill: rgb(255, 255, 153);"><rect x="0.9523809523809526" y="1.1368683772161603e-13" height="0" width="8.571428571428571"/><rect x="10.476190476190476" y="0" height="240.27402947892875" width="8.571428571428571"/></g><g class="layer" style="fill: rgb(56, 108, 176);"><rect x="0.9523809523809526" y="598.8841361353915" height="0" width="8.571428571428571"/><rect x="10.476190476190476" y="598.8789703134731" height="0.6227942702927294" width="8.571428571428571"/></g><g class="layer" style="fill: rgb(240, 2, 127);"><rect x="0.9523809523809526" y="181.3278779988841" height="0" width="8.571428571428571"/><rect x="10.476190476190476" y="305.7919867137222" height="36.744861947270124" width="8.571428571428571"/></g><g class="layer" style="fill: rgb(127, 201, 127);"><rect x="0.9523809523809526" y="243.36990887111773" height="23.767900316161445" width="8.571428571428571"/><rect x="10.476190476190476" y="406.18642308490763" height="0" width="8.571428571428571"/></g><g class="layer" style="fill: rgb(190, 174, 212);"><rect x="0.9523809523809526" y="475.5811790961503" height="0" width="8.571428571428571"/><rect x="10.476190476190476" y="516.7946854888935" height="8.220884367863846" width="8.571428571428571"/></g><g class="layer" style="fill: rgb(240, 2, 127);"><rect x="0.9523809523809526" y="495.5551422726428" height="0" width="8.571428571428571"/><rect x="10.476190476190476" y="525.0155698567573" height="7.224413535395456" width="8.571428571428571"/></g><g class="layer" style="fill: rgb(127, 201, 127);"><rect x="0.9523809523809526" y="568.8673981774224" height="0" width="8.571428571428571"/><rect x="10.476190476190476" y="579.1986713722233" height="2.4911770811709175" width="8.571428571428571"/></g><g class="layer" style="fill: rgb(240, 2, 127);"><rect x="0.9523809523809526" y="558.601450623024" height="2.901246047982113" width="8.571428571428571"/><rect x="10.476190476190476" y="576.0847000207598" height="0" width="8.571428571428571"/></g><g class="layer" style="fill: rgb(56, 108, 176);"><rect x="0.9523809523809526" y="589.51087967268" height="1.1158638646085137" width="8.571428571428571"/><rect x="10.476190476190476" y="593.8966161511314" height="0" width="8.571428571428571"/></g><g class="layer" style="fill: rgb(127, 201, 127);"><rect x="0.9523809523809526" y="475.5811790961503" height="6.9183559605727964" width="8.571428571428571"/><rect x="10.476190476190476" y="525.0155698567573" height="0" width="8.571428571428571"/></g><g class="layer" style="fill: rgb(240, 2, 127);"><rect x="0.9523809523809526" y="598.3262042030872" height="0.5579319323043137" width="8.571428571428571"/><rect x="10.476190476190476" y="598.8789703134731" height="0" width="8.571428571428571"/></g><g class="layer" style="fill: rgb(240, 2, 127);"><rect x="0.9523809523809526" y="588.3950158080714" height="1.1158638646085137" width="8.571428571428571"/><rect x="10.476190476190476" y="593.8966161511314" height="0" width="8.571428571428571"/></g><g class="layer" style="fill: rgb(190, 174, 212);"><rect x="0.9523809523809526" y="591.742607401897" height="1.0042774781476282" width="8.571428571428571"/><rect x="10.476190476190476" y="595.0176458376583" height="0" width="8.571428571428571"/></g><g class="layer" style="fill: rgb(253, 192, 134);"><rect x="0.9523809523809526" y="581.6998326204204" height="1.4506230239910565" width="8.571428571428571"/><rect x="10.476190476190476" y="593.8966161511314" height="0" width="8.571428571428571"/></g><g class="layer" style="fill: rgb(240, 2, 127);"><rect x="0.9523809523809526" y="517.0913148595871" height="5.021387390738369" width="8.571428571428571"/><rect x="10.476190476190476" y="550.6746937928172" height="0" width="8.571428571428571"/></g><g class="layer" style="fill: rgb(56, 108, 176);"><rect x="0.9523809523809526" y="330.63046308350386" height="19.639204017109876" width="8.571428571428571"/><rect x="10.476190476190476" y="406.18642308490763" height="0" width="8.571428571428571"/></g><g class="layer" style="fill: rgb(190, 174, 212);"><rect x="0.9523809523809526" y="501.6923935279896" height="5.244560163660026" width="8.571428571428571"/><rect x="10.476190476190476" y="544.9449865061241" height="0" width="8.571428571428571"/></g><g class="layer" style="fill: rgb(190, 174, 212);"><rect x="0.9523809523809526" y="367.5655570020458" height="16.96113074204942" width="8.571428571428571"/><rect x="10.476190476190476" y="427.2368694208013" height="0" width="8.571428571428571"/></g><g class="layer" style="fill: rgb(102, 102, 102);"><rect x="0.9523809523809526" y="267.1378091872792" height="23.433141156778902" width="8.571428571428571"/><rect x="10.476190476190476" y="406.18642308490763" height="0" width="8.571428571428571"/></g><g class="layer" style="fill: rgb(240, 2, 127);"><rect x="0.9523809523809526" y="310.9912590663939" height="19.639204017109932" width="8.571428571428571"/><rect x="10.476190476190476" y="406.18642308490763" height="0" width="8.571428571428571"/></g><g class="layer" style="fill: rgb(102, 102, 102);"><rect x="0.9523809523809526" y="141.4915380323601" height="39.83633996652401" width="8.571428571428571"/><rect x="10.476190476190476" y="268.6734482042765" height="0" width="8.571428571428571"/></g><g class="layer" style="fill: rgb(191, 91, 23);"><rect x="0.9523809523809526" y="512.0699274688488" height="5.021387390738255" width="8.571428571428571"/><rect x="10.476190476190476" y="550.6746937928172" height="0" width="8.571428571428571"/></g><g class="layer" style="fill: rgb(127, 201, 127);"><rect x="0.9523809523809526" y="584.4894922819416" height="1.3390366375302847" width="8.571428571428571"/><rect x="10.476190476190476" y="593.8966161511314" height="0" width="8.571428571428571"/></g><g class="layer" style="fill: rgb(190, 174, 212);"><rect x="0.9523809523809526" y="583.1504556444114" height="1.339036637530171" width="8.571428571428571"/><rect x="10.476190476190476" y="593.8966161511314" height="0" width="8.571428571428571"/></g><g class="layer" style="fill: rgb(255, 255, 153);"><rect x="0.9523809523809526" y="460.40543053747444" height="7.699460665798824" width="8.571428571428571"/><rect x="10.476190476190476" y="516.7946854888935" height="0" width="8.571428571428571"/></g><g class="layer" style="fill: rgb(127, 201, 127);"><rect x="0.9523809523809526" y="441.882090384973" height="0" width="8.571428571428571"/><rect x="10.476190476190476" y="484.16026572555535" height="12.580444259912781" width="8.571428571428571"/></g><g class="layer" style="fill: rgb(253, 192, 134);"><rect x="0.9523809523809526" y="1.1368683772161603e-13" height="77.66412497675276" width="8.571428571428571"/><rect x="10.476190476190476" y="240.27402947892875" height="0" width="8.571428571428571"/></g><g class="layer" style="fill: rgb(190, 174, 212);"><rect x="0.9523809523809526" y="566.6356704482054" height="2.2317277292170274" width="8.571428571428571"/><rect x="10.476190476190476" y="579.1986713722233" height="0" width="8.571428571428571"/></g><g class="layer" style="fill: rgb(127, 201, 127);"><rect x="0.9523809523809526" y="126.4273758601451" height="15.064162172214992" width="8.571428571428571"/><rect x="10.476190476190476" y="240.27402947892875" height="28.399418725347743" width="8.571428571428571"/></g><g class="layer" style="fill: rgb(102, 102, 102);"><rect x="0.9523809523809526" y="596.987167565557" height="0.6695183187650855" width="8.571428571428571"/><rect x="10.476190476190476" y="598.8789703134731" height="0" width="8.571428571428571"/></g><g class="layer" style="fill: rgb(56, 108, 176);"><rect x="0.9523809523809526" y="495.5551422726428" height="6.1372512553468255" width="8.571428571428571"/><rect x="10.476190476190476" y="532.2399833921528" height="0" width="8.571428571428571"/></g><g class="layer" style="fill: rgb(255, 255, 153);"><rect x="0.9523809523809526" y="350.26966710061373" height="0" width="8.571428571428571"/><rect x="10.476190476190476" y="406.18642308490763" height="21.050446335893696" width="8.571428571428571"/></g><g class="layer" style="fill: rgb(240, 2, 127);"><rect x="0.9523809523809526" y="541.305560721592" height="0" width="8.571428571428571"/><rect x="10.476190476190476" y="566.1199916960763" height="4.235001037990514" width="8.571428571428571"/></g><g class="layer" style="fill: rgb(253, 192, 134);"><rect x="0.9523809523809526" y="596.206062860331" height="0" width="8.571428571428571"/><rect x="10.476190476190476" y="597.1351463566535" height="0.8719119784097984" width="8.571428571428571"/></g><g class="layer" style="fill: rgb(240, 2, 127);"><rect x="0.9523809523809526" y="570.9875395201785" height="2.120141342756142" width="8.571428571428571"/><rect x="10.476190476190476" y="584.181025534565" height="0" width="8.571428571428571"/></g><g class="layer" style="fill: rgb(255, 255, 153);"><rect x="0.9523809523809526" y="441.882090384973" height="0" width="8.571428571428571"/><rect x="10.476190476190476" y="445.42246211334856" height="12.954120822088441" width="8.571428571428571"/></g><g class="layer" style="fill: rgb(255, 255, 153);"><rect x="0.9523809523809526" y="598.8841361353915" height="0" width="8.571428571428571"/><rect x="10.476190476190476" y="599.5017645837659" height="0.49823541623413803" width="8.571428571428571"/></g><g class="layer" style="fill: rgb(253, 192, 134);"><rect x="0.9523809523809526" y="468.10489120327327" height="7.476287892877053" width="8.571428571428571"/><rect x="10.476190476190476" y="516.7946854888935" height="0" width="8.571428571428571"/></g><g class="layer" style="fill: rgb(253, 192, 134);"><rect x="0.9523809523809526" y="591.742607401897" height="0" width="8.571428571428571"/><rect x="10.476190476190476" y="593.8966161511314" height="1.1210296865268674" width="8.571428571428571"/></g><g class="layer" style="fill: rgb(191, 91, 23);"><rect x="0.9523809523809526" y="587.167565557002" height="1.2274502510693992" width="8.571428571428571"/><rect x="10.476190476190476" y="593.8966161511314" height="0" width="8.571428571428571"/></g><g class="layer" style="fill: rgb(191, 91, 23);"><rect x="0.9523809523809526" y="568.8673981774224" height="2.120141342756142" width="8.571428571428571"/><rect x="10.476190476190476" y="584.181025534565" height="0" width="8.571428571428571"/></g><g class="layer" style="fill: rgb(255, 255, 153);"><rect x="0.9523809523809526" y="595.4249581551051" height="0.781104705225971" width="8.571428571428571"/><rect x="10.476190476190476" y="597.1351463566535" height="0" width="8.571428571428571"/></g><g class="layer" style="fill: rgb(191, 91, 23);"><rect x="0.9523809523809526" y="593.7511623581923" height="0" width="8.571428571428571"/><rect x="10.476190476190476" y="596.1386755241851" height="0.9964708324683897" width="8.571428571428571"/></g><g class="layer" style="fill: rgb(127, 201, 127);"><rect x="0.9523809523809526" y="532.0438906453413" height="4.798214617816598" width="8.571428571428571"/><rect x="10.476190476190476" y="561.7604318040273" height="0" width="8.571428571428571"/></g><g class="layer" style="fill: rgb(191, 91, 23);"><rect x="0.9523809523809526" y="489.0831318579134" height="6.472010414729425" width="8.571428571428571"/><rect x="10.476190476190476" y="525.0155698567573" height="0" width="8.571428571428571"/></g><g class="layer" style="fill: rgb(191, 91, 23);"><rect x="0.9523809523809526" y="580.1376232099684" height="1.562209410451942" width="8.571428571428571"/><rect x="10.476190476190476" y="588.6651442806726" height="0" width="8.571428571428571"/></g><g class="layer" style="fill: rgb(191, 91, 23);"><rect x="0.9523809523809526" y="401.48781848614465" height="15.287334945136763" width="8.571428571428571"/><rect x="10.476190476190476" y="445.42246211334856" height="0" width="8.571428571428571"/></g><g class="layer" style="fill: rgb(191, 91, 23);"><rect x="0.9523809523809526" y="555.7002045750419" height="2.901246047982113" width="8.571428571428571"/><rect x="10.476190476190476" y="576.0847000207598" height="0" width="8.571428571428571"/></g><g class="layer" style="fill: rgb(190, 174, 212);"><rect x="0.9523809523809526" y="77.66412497675287" height="48.76325088339223" width="8.571428571428571"/><rect x="10.476190476190476" y="240.27402947892875" height="0" width="8.571428571428571"/></g><g class="layer" style="fill: rgb(191, 91, 23);"><rect x="0.9523809523809526" y="290.5709503440581" height="20.420308722335847" width="8.571428571428571"/><rect x="10.476190476190476" y="406.18642308490763" height="0" width="8.571428571428571"/></g><g class="layer" style="fill: rgb(56, 108, 176);"><rect x="0.9523809523809526" y="452.2596243258323" height="8.145806211642139" width="8.571428571428571"/><rect x="10.476190476190476" y="516.7946854888935" height="0" width="8.571428571428571"/></g><g class="layer" style="fill: rgb(255, 255, 153);"><rect x="0.9523809523809526" y="575.2278222056909" height="0" width="8.571428571428571"/><rect x="10.476190476190476" y="584.181025534565" height="2.117500518995257" width="8.571428571428571"/></g><g class="layer" style="fill: rgb(190, 174, 212);"><rect x="0.9523809523809526" y="549.6745397061559" height="0" width="8.571428571428571"/><rect x="10.476190476190476" y="572.7216109611792" height="3.3630890595806022" width="8.571428571428571"/></g><g class="layer" style="fill: rgb(255, 255, 153);"><rect x="0.9523809523809526" y="213.5763436860703" height="0" width="8.571428571428571"/><rect x="10.476190476190476" y="342.53684866099235" height="34.50280257421633" width="8.571428571428571"/></g><g class="layer" style="fill: rgb(56, 108, 176);"><rect x="0.9523809523809526" y="594.6438534498791" height="0.781104705225971" width="8.571428571428571"/><rect x="10.476190476190476" y="597.1351463566535" height="0" width="8.571428571428571"/></g></g></svg>